 http://img845.imageshack.us/img845/521/the20lost20bladesman202.jpg

Country.......: China, Hong Kong
Genre.........: Action, Drama, History
Date release..: 28.04.2011 [World]
Director......: Felix Chong, Alan Mak
Writers.......: Felix Chong, Alan Mak
Duration......: 105 min.
More..........: http://www.imdb.com/title/tt1648093
Trailer.......:

Pilot :
A tyrant forces the greatest warrior in the land to battle his greatest friend by holding the woman they both love hostage. 

Cats :
Yu Ai Lei   	 ...  	Bian Xi
Hong Chen 	... 	Liu Bei s wife
Siu hou Chin 	... 	Yan Liang
Yong Dong 	... 	Xuyou
Alex Fong 	... 	Liu Bei
Zi Hei 	Zi Hei 	... 	Meng Tan
Wen Jiang 	... 	Cao Cao
Zonghan Li 	... 	Qin Qi
Yuan Nie 	... 	Han Fu
Andy On 	... 	Kong Xiu
Bing Shao 	... 	Zhang Liao
Betty Sun 	... 	Qi Lan
Bo Chieh Wang 	... 	Liu Xie
Xuebing Wang 	... 	Wang Zhi
Donnie Yen 	... 	Guan Yu 

Data Technical :
!!! SAMPLE !!!
Audio.....: Chinese
Subtitles.: English .srt
Format                           : AVI
Format/Info                      : Audio Video Interleave
File size                        : 1.34 GiB
Duration                         : 1h 44mn
Overall bit rate                 : 1 828 Kbps
Writing library                  : VirtualDub build 29393/release
Video
ID                               : 0
Format                           : MPEG-4 Visual
Format profile                   : Advanced Simple@L5
Format settings, BVOP            : Yes
Format settings, QPel            : No
Format settings, GMC             : No warppoints
Format settings, Matrix          : Default (H.263)
Muxing mode                      : Packed bitstream
Codec ID                         : XVID
Codec ID/Hint                    : XviD
Duration                         : 1h 44mn
Bit rate                         : 1 625 Kbps
Width                            : 720 pixels
Height                           : 316 pixels
Display aspect ratio             : 2.25:1
Frame rate                       : 29.970 fps
Color space                      : YUV
Chroma subsampling               : 4:2:0
Bit depth                        : 8 bits
Scan type                        : Progressive
Bits/(Pixel*Frame)               : 0.238
Stream size                      : 1.19 GiB (89%)
Writing library                  : XviD 1.1.0 (UTC 2005-11-22)
Audio
ID                               : 1
Format                           : AC-3
Format/Info                      : Audio Coding 3
Mode extension                   : CM (complete main)
Codec ID                         : 2000
Duration                         : 1h 44mn
Bit rate mode                    : Constant
Bit rate                         : 192 Kbps
Channel(s)                       : 2 channels
Channel positions                : Front: L R
Sampling rate                    : 48.0 KHz
Bit depth                        : 16 bits
Stream size                      : 144 MiB (11%)
Alignment                        : Aligned on interleaves
Interleave, duration             : 33 ms (1.00 video frame)
Interleave, preload duration     : 512 ms

Screen : 
http://img577.imageshack.us/img577/6320/thelostbladesman2011s1.jpg 
http://img59.imageshack.us/img59/9632/thelostbladesman2011s2.jpg 
http://img806.imageshack.us/img806/9076/thelostbladesman2011s3.jpg 
http://img7.imageshack.us/img7/4051/thelostbladesman2011s4.jpg 
http://img27.imageshack.us/img27/9349/thelostbladesman2011s5.jpg